<?xml version="1.0" encoding="UTF-8" standalone="no"?>
<svg
   xmlns:dc="http://purl.org/dc/elements/1.1/"
   xmlns:cc="http://creativecommons.org/ns#"
   xmlns:rdf="http://www.w3.org/1999/02/22-rdf-syntax-ns#"
   xmlns:svg="http://www.w3.org/2000/svg"
   xmlns="http://www.w3.org/2000/svg"
   xmlns:sodipodi="http://sodipodi.sourceforge.net/DTD/sodipodi-0.dtd"
   xmlns:inkscape="http://www.inkscape.org/namespaces/inkscape"
   width="64.552002"
   height="50"
   viewBox="0 0 12.703834 9.8411468"
   version="1.1"
   id="svg4"
   sodipodi:docname="microsoft-azure-logo.svg"
   inkscape:version="1.0.1 (3bc2e813f5, 2020-09-07)">
  <metadata
     id="metadata10">
    <rdf:RDF>
      <cc:Work
         rdf:about="">
        <dc:format>image/svg+xml</dc:format>
        <dc:type
           rdf:resource="http://purl.org/dc/dcmitype/StillImage" />
        <dc:title></dc:title>
      </cc:Work>
    </rdf:RDF>
  </metadata>
  <defs
     id="defs8" />
  <sodipodi:namedview
     pagecolor="#ffffff"
     bordercolor="#666666"
     borderopacity="1"
     objecttolerance="10"
     gridtolerance="10"
     guidetolerance="10"
     inkscape:pageopacity="0"
     inkscape:pageshadow="2"
     inkscape:window-width="1920"
     inkscape:window-height="1017"
     id="namedview6"
     showgrid="false"
     inkscape:zoom="10.42"
     inkscape:cx="36.420345"
     inkscape:cy="38.715"
     inkscape:window-x="-8"
     inkscape:window-y="-8"
     inkscape:window-maximized="1"
     inkscape:current-layer="svg4" />
  <path
     d="M 5.8775757,9.3150376 8.8741387,8.7857008 8.9018966,8.7792454 7.36101,6.9459324 A 260.75973,260.75973 0 0 1 5.8201233,5.1042275 c 0,-0.00904 1.5912382,-4.39091381 1.6002757,-4.4064066 0.00258,-0.005164 1.0857861,1.8642986 2.624736,4.5316399 L 12.685364,9.806288 12.705374,9.841147 7.8077186,9.8405013 2.9100616,9.8398557 5.8775757,9.3156831 Z M 0,8.7572973 C 0,8.7547152 0.72622435,7.4939897 1.6138319,5.9556852 L 3.2276638,3.1585918 5.1081007,1.5802642 C 6.1422441,0.71266816 6.9911197,0.00129107 6.9949929,0 a 0.33051277,0.33051277 0 0 1 -0.03034,0.07617286 L 4.9221872,4.4561126 2.916517,8.7572973 1.4582585,8.7592339 C 0.65650681,8.760525 0,8.7592339 0,8.7566518 Z"
     fill="#0089d6"
     id="path2"
     style="stroke-width:0.645533" />
</svg>
