<?xml version="1.0" encoding="UTF-8" standalone="no"?>
<svg
   xmlns:dc="http://purl.org/dc/elements/1.1/"
   xmlns:cc="http://creativecommons.org/ns#"
   xmlns:rdf="http://www.w3.org/1999/02/22-rdf-syntax-ns#"
   xmlns:svg="http://www.w3.org/2000/svg"
   xmlns="http://www.w3.org/2000/svg"
   xmlns:xlink="http://www.w3.org/1999/xlink"
   xmlns:sodipodi="http://sodipodi.sourceforge.net/DTD/sodipodi-0.dtd"
   xmlns:inkscape="http://www.inkscape.org/namespaces/inkscape"
   width="62"
   height="36"
   version="1.1"
   id="svg46"
   sodipodi:docname="docker-logo.svg"
   inkscape:version="1.0.1 (3bc2e813f5, 2020-09-07)">
  <metadata
     id="metadata50">
    <rdf:RDF>
      <cc:Work
         rdf:about="">
        <dc:format>image/svg+xml</dc:format>
        <dc:type
           rdf:resource="http://purl.org/dc/dcmitype/StillImage" />
        <dc:title></dc:title>
      </cc:Work>
    </rdf:RDF>
  </metadata>
  <sodipodi:namedview
     pagecolor="#ffffff"
     bordercolor="#666666"
     borderopacity="1"
     objecttolerance="10"
     gridtolerance="10"
     guidetolerance="10"
     inkscape:pageopacity="0"
     inkscape:pageshadow="2"
     inkscape:window-width="1920"
     inkscape:window-height="1017"
     id="namedview48"
     showgrid="false"
     inkscape:zoom="8.6833333"
     inkscape:cx="60"
     inkscape:cy="30"
     inkscape:window-x="-8"
     inkscape:window-y="-8"
     inkscape:window-maximized="1"
     inkscape:current-layer="svg46" />
  <defs
     id="defs5">
    <clipPath
       id="A">
      <path
         d="M 76,2 V 48 H 54 V 71 H 35.58 l -0.206,2 c -1.15,12.53 1.036,24.088 6.063,33.97 l 1.688,3.03 c 1,1.817 2.2,3.523 3.438,5.188 1.238,1.665 1.686,2.583 2.47,3.688 C 62.32,133.8 82.13,141 105,141 155.648,141 198.633,118.562 217.656,68.156 231.153,69.54 244.1,66.08 250,54.563 240.6,49.139 228.522,50.878 221.563,54.376 L 240,2 168,48 H 145 V 2 Z"
         id="path2" />
    </clipPath>
  </defs>
  <g
     transform="matrix(0.24167933,0,0,0.24167933,0.17984344,21.042743)"
     id="g44">
    <path
       d="m 147.488,-39.268 h 22.866 v 23.375 h 11.562 c 5.34,0 10.83,-0.95 15.887,-2.664 2.484,-0.842 5.273,-2.015 7.724,-3.5 -3.228,-4.214 -4.876,-9.536 -5.36,-14.78 -0.66,-7.134 0.78,-16.42 5.6,-22.004 l 2.404,-2.78 2.864,2.302 c 7.2,5.794 13.276,13.9 14.345,23.118 8.683,-2.554 18.878,-1.95 26.53,2.467 l 3.14,1.812 -1.653,3.226 C 246.933,-16.053 233.4,-12.14 220.17,-12.833 200.374,36.477 157.273,59.82 105.014,59.82 78.014,59.82 53.244,49.727 39.138,25.773 38.311,24.285 37.603,22.729 36.852,21.201 32.084,10.657 30.5,-0.894 31.574,-12.436 l 0.322,-3.457 H 51.45 v -23.375 h 22.866 v -22.866 h 45.732 V -85 h 27.44 v 45.732"
       fill="#394d54"
       id="path9" />
    <g
       transform="translate(0,-85)"
       clip-path="url(#A)"
       id="g36">
      <g
         id="B">
        <g
           id="C"
           transform="translate(0,-22.866)">
          <path
             d="m 123.86,3.8 h 19.818 V 23.617 H 123.86 Z"
             fill="#00acd3"
             id="path11" />
          <path
             d="m 123.86,26.676 h 19.818 V 46.494 H 123.86 Z"
             fill="#20c2ef"
             id="path13" />
          <path
             id="D"
             d="M 126.292,21.977 V 5.46 m 2.972,16.516 V 5.46 m 3.002,16.516 V 5.46 m 3.003,16.516 V 5.46 m 3.003,16.516 V 5.46 m 2.97,16.516 V 5.46"
             stroke-width="1.56"
             stroke="#394d54" />
          <use
             xlink:href="#D"
             y="22.865999"
             id="use16"
             x="0"
             width="100%"
             height="100%" />
        </g>
        <use
           xlink:href="#C"
           transform="matrix(1,0,0,-1,22.866,4.572651)"
           id="use19"
           x="0"
           y="0"
           width="100%"
           height="100%" />
      </g>
      <use
         xlink:href="#B"
         x="-91.463997"
         y="45.731998"
         id="use22"
         width="100%"
         height="100%" />
      <use
         xlink:href="#B"
         x="-45.731998"
         y="45.731998"
         id="use24"
         width="100%"
         height="100%" />
      <use
         xlink:href="#B"
         y="45.731998"
         id="use26"
         x="0"
         width="100%"
         height="100%" />
      <path
         d="m 221.57,54.38 c 1.533,-11.915 -7.384,-21.275 -12.914,-25.718 -6.373,7.368 -7.363,26.678 2.635,34.807 -5.58,4.956 -17.337,9.448 -29.376,9.448 H 34 C 32.83,85.484 34,146 34,146 h 217 l -0.987,-91.424 c -9.4,-5.424 -21.484,-3.694 -28.443,-0.197"
         fill="#17b5eb"
         id="path28" />
      <path
         d="m 34,89 v 57 H 251 V 89"
         fill-opacity="0.17"
         id="path30" />
      <path
         d="M 111.237,140.9 C 97.697,134.475 90.265,125.74 86.13,116.206 L 45,118 l 21,28 45.237,-5.1"
         fill="#d4edf1"
         id="path32" />
      <path
         d="m 222.5,53.938 v 0.03 c -20.86,26.9 -50.783,50.38 -82.906,62.72 -28.655,11.008 -53.638,11.06 -70.875,2.22 -1.856,-1.048 -3.676,-2.212 -5.5,-3.312 C 50.582,106.764 43.465,92.156 44.063,72.909 H 34 V 146 H 251 V 50 h -25 z"
         fill-opacity="0.085"
         id="path34" />
    </g>
    <path
       d="m 45.625,32.03 c 14.165,0.775 29.282,0.914 42.47,-3.22"
       fill="none"
       stroke-width="3.4"
       stroke="#394d54"
       stroke-linecap="round"
       id="path38" />
    <path
       d="m 102.17,21.96 a 5.47,5.47 0 0 1 -5.467,5.467 5.47,5.47 0 0 1 -5.468,-5.467 5.47,5.47 0 0 1 5.468,-5.468 5.47,5.47 0 0 1 5.467,5.468 z"
       fill="#d4edf1"
       id="path40" />
    <path
       d="m 98.12,18.308 a 1.6,1.6 0 0 0 0.798,2.981 c 0.605,0 1.13,-0.336 1.402,-0.832 0.192,0.462 0.298,0.97 0.298,1.502 0,2.162 -1.753,3.915 -3.916,3.915 -2.163,0 -3.916,-1.753 -3.916,-3.915 a 3.92,3.92 0 0 1 3.916,-3.917 3.91,3.91 0 0 1 1.418,0.265 z M 0,5.162 h 254.327 c -5.538,-1.405 -17.52,-3.302 -15.545,-10.56 -10.07,11.652 -34.353,8.174 -40.48,2.43 -6.825,9.898 -46.555,6.136 -49.326,-1.575 -8.556,10.04 -35.067,10.04 -43.623,0 -2.772,7.7 -42.5,11.473 -49.327,1.575 -6.128,5.746 -30.4,9.223 -40.48,-2.43 C 17.522,1.86 5.54,3.758 0,5.162"
       fill="#394d54"
       id="path42" />
  </g>
</svg>
