<?xml version="1.0" encoding="UTF-8" standalone="no"?>
<svg
   xmlns:dc="http://purl.org/dc/elements/1.1/"
   xmlns:cc="http://creativecommons.org/ns#"
   xmlns:rdf="http://www.w3.org/1999/02/22-rdf-syntax-ns#"
   xmlns:svg="http://www.w3.org/2000/svg"
   xmlns="http://www.w3.org/2000/svg"
   xmlns:sodipodi="http://sodipodi.sourceforge.net/DTD/sodipodi-0.dtd"
   xmlns:inkscape="http://www.inkscape.org/namespaces/inkscape"
   width="51"
   height="51"
   viewBox="0 0 51 51"
   version="1.1"
   preserveAspectRatio="xMidYMid"
   id="svg12"
   sodipodi:docname="git-logo.svg"
   inkscape:version="1.0.1 (3bc2e813f5, 2020-09-07)">
  <metadata
     id="metadata18">
    <rdf:RDF>
      <cc:Work
         rdf:about="">
        <dc:format>image/svg+xml</dc:format>
        <dc:type
           rdf:resource="http://purl.org/dc/dcmitype/StillImage" />
        <dc:title></dc:title>
      </cc:Work>
    </rdf:RDF>
  </metadata>
  <defs
     id="defs16" />
  <sodipodi:namedview
     pagecolor="#ffffff"
     bordercolor="#666666"
     borderopacity="1"
     objecttolerance="10"
     gridtolerance="10"
     guidetolerance="10"
     inkscape:pageopacity="0"
     inkscape:pageshadow="2"
     inkscape:window-width="1920"
     inkscape:window-height="1017"
     id="namedview14"
     showgrid="false"
     inkscape:zoom="4.0703125"
     inkscape:cx="93.236084"
     inkscape:cy="54"
     inkscape:window-x="-8"
     inkscape:window-y="-8"
     inkscape:window-maximized="1"
     inkscape:current-layer="g10"
     inkscape:document-rotation="0" />
  <g
     id="g10"
     transform="matrix(0.46895557,0,0,0.46895557,0.14547432,0.06693319)">
    <path
       d="M 105.36592,49.48374 58.813145,2.9344834 c -2.67901,-2.68134951 -7.027429,-2.68134951 -9.709948,0 l -9.666663,9.6666626 12.262612,12.262612 c 2.849811,-0.962806 6.117267,-0.317036 8.38916,1.954858 2.282424,2.285932 2.923514,5.581465 1.937311,8.440635 l 11.81806,11.81806 c 2.859169,-0.985034 6.158212,-0.347452 8.441804,1.93965 3.191416,3.190244 3.191416,8.361084 0,11.553668 -3.192583,3.192584 -8.363423,3.192584 -11.557177,0 -2.40058,-2.40292 -2.993706,-5.928918 -1.778207,-8.886358 l -11.021376,-11.021375 -0.0012,29.003497 c 0.777966,0.386059 1.512646,0.899633 2.160755,1.545403 3.191416,3.190244 3.191416,8.361084 0,11.556008 -3.192583,3.191414 -8.365762,3.191414 -11.553667,0 -3.191414,-3.194924 -3.191414,-8.365764 0,-11.556008 0.788495,-0.787325 1.700995,-1.382791 2.67433,-1.782887 V 40.155171 C 50.235604,39.757414 49.324273,39.165458 48.534609,38.372284 46.11648,35.957665 45.535053,32.40944 46.773949,29.440302 L 34.686849,17.350831 2.7668573,49.268483 c -2.68251931,2.68369 -2.68251931,7.032108 0,9.713458 L 49.319624,105.53237 c 2.680179,2.68135 7.027428,2.68135 9.711118,0 L 105.36592,59.198368 c 2.68134,-2.68252 2.68134,-7.033278 0,-9.714628"
       fill="#de4c36"
       id="path8"
       style="stroke-width:1.00079" />
  </g>
</svg>
