<?xml version="1.0" encoding="UTF-8" standalone="no"?>
<svg
   xmlns:dc="http://purl.org/dc/elements/1.1/"
   xmlns:cc="http://creativecommons.org/ns#"
   xmlns:rdf="http://www.w3.org/1999/02/22-rdf-syntax-ns#"
   xmlns:svg="http://www.w3.org/2000/svg"
   xmlns="http://www.w3.org/2000/svg"
   xmlns:sodipodi="http://sodipodi.sourceforge.net/DTD/sodipodi-0.dtd"
   xmlns:inkscape="http://www.inkscape.org/namespaces/inkscape"
   width="55"
   height="50"
   viewBox="0 0 55 50"
   version="1.1"
   preserveAspectRatio="xMidYMid"
   id="svg10"
   sodipodi:docname="react-logo.svg"
   inkscape:version="1.0.1 (3bc2e813f5, 2020-09-07)">
  <metadata
     id="metadata16">
    <rdf:RDF>
      <cc:Work
         rdf:about="">
        <dc:format>image/svg+xml</dc:format>
        <dc:type
           rdf:resource="http://purl.org/dc/dcmitype/StillImage" />
        <dc:title></dc:title>
      </cc:Work>
    </rdf:RDF>
  </metadata>
  <defs
     id="defs14" />
  <sodipodi:namedview
     pagecolor="#ffffff"
     bordercolor="#666666"
     borderopacity="1"
     objecttolerance="10"
     gridtolerance="10"
     guidetolerance="10"
     inkscape:pageopacity="0"
     inkscape:pageshadow="2"
     inkscape:window-width="1920"
     inkscape:window-height="1017"
     id="namedview12"
     showgrid="false"
     lock-margins="true"
     units="px"
     inkscape:zoom="7.3913043"
     inkscape:cx="33.152531"
     inkscape:cy="34.763142"
     inkscape:window-x="-8"
     inkscape:window-y="-8"
     inkscape:window-maximized="1"
     inkscape:current-layer="svg10"
     inkscape:document-rotation="0" />
  <path
     d="m 0.3024311,24.912166 c 0,4.107871 4.0112668,7.942739 10.3353799,10.104287 -1.2628661,6.357695 -0.226331,11.48195 3.235816,13.478657 3.558729,2.052216 8.860366,0.63166 13.89232,-3.76686 4.905005,4.22095 9.8624,5.882119 13.321322,3.879723 3.555249,-2.058169 4.636681,-7.529974 3.338895,-14.086114 6.586882,-2.177778 10.271405,-5.447754 10.271405,-9.609693 0,-4.012652 -4.01871,-7.484122 -10.257527,-9.631849 C 45.837168,8.4532198 44.653345,3.4533093 41.047887,1.374147 37.571856,-0.63030239 32.556913,1.1167749 27.579771,5.4482755 22.401887,0.85072702 17.436437,-0.55296473 13.834467,1.532269 10.361813,3.5424214 9.3708579,8.7597991 10.637811,15.23519 4.5272449,17.365698 0.3024311,20.915571 0.3024311,24.912166 Z"
     fill="#ffffff"
     id="path2"
     style="stroke-width:0.213792" />
  <path
     d="m 43.064797,17.44059 c -0.501125,-0.172487 -1.020409,-0.335692 -1.555074,-0.49004 0.08791,-0.358648 0.168532,-0.712659 0.240243,-1.060654 C 42.927139,10.175794 42.15746,5.5724657 39.529261,4.0568579 37.009155,2.6035895 32.887706,4.1188283 28.725231,7.7413249 28.324958,8.0896612 27.923578,8.4584546 27.522358,8.8449688 27.255022,8.589247 26.988125,8.3421174 26.72191,8.1057317 22.359521,4.2323594 17.986897,2.6000663 15.361282,4.1200607 12.843578,5.5775417 12.097983,9.9051012 13.1576,15.320409 c 0.102321,0.523058 0.221938,1.057208 0.357194,1.600305 -0.618848,0.175669 -1.216291,0.362945 -1.787937,0.562183 -5.11443,1.783118 -8.380736,4.577704 -8.380736,7.476414 0,2.993811 3.506382,5.996659 8.833461,7.81744 0.420396,0.143688 0.856605,0.279542 1.306148,0.408517 -0.145923,0.587389 -0.272837,1.162982 -0.379377,1.724392 -1.010347,5.321314 -0.221332,9.546644 2.28966,10.994926 2.593635,1.495659 6.946484,-0.04171 11.18505,-3.746723 0.334995,-0.292869 0.671209,-0.603459 1.008021,-0.929005 0.436564,0.420396 0.872425,0.818253 1.305967,1.191433 4.105552,3.53296 8.160449,4.959567 10.669122,3.507252 2.591059,-1.499962 3.433125,-6.038973 2.339891,-11.561405 -0.08351,-0.421768 -0.180669,-0.85265 -0.289785,-1.291191 0.305688,-0.09036 0.605778,-0.183662 0.898396,-0.280656 5.538002,-1.834874 9.141204,-4.801174 9.141204,-7.83498 0,-2.909203 -3.371642,-5.722617 -8.589082,-7.518721 z"
     fill="#53c1de"
     id="path4"
     style="stroke-width:0.213792" />
  <path
     d="m 41.863682,30.835715 c -0.264147,0.08743 -0.535181,0.171971 -0.811374,0.253918 -0.611369,-1.935481 -1.436494,-3.993587 -2.446243,-6.119959 0.96357,-2.075736 1.756798,-4.107523 2.35106,-6.03045 0.494161,0.142992 0.973805,0.293809 1.435986,0.452976 4.4703,1.538906 7.197123,3.814222 7.197123,5.567413 0,1.867467 -2.944896,4.2917 -7.726552,5.876102 z m -1.984062,3.931506 c 0.48341,2.441947 0.552462,4.649757 0.232256,6.375695 -0.287716,1.550861 -0.866325,2.584848 -1.581742,2.99897 -1.522403,0.881198 -4.778042,-0.264238 -8.289159,-3.285656 -0.402501,-0.346359 -0.807941,-0.71619 -1.214662,-1.107599 1.361183,-1.488696 2.721587,-3.219362 4.049313,-5.141433 2.33533,-0.207232 4.541671,-0.546022 6.542506,-1.008544 0.09853,0.397516 0.186079,0.787379 0.261488,1.168567 z m -20.064251,9.222385 c -1.487408,0.525293 -2.672052,0.54034 -3.388151,0.127429 -1.523783,-0.878872 -2.157246,-4.271417 -1.293162,-8.822195 0.09897,-0.521164 0.216778,-1.056526 0.352541,-1.603752 1.978917,0.437587 4.169097,0.752473 6.510011,0.942249 1.336667,1.880801 2.736369,3.609573 4.146898,5.123294 -0.308173,0.297514 -0.615157,0.580753 -0.920399,0.847658 -1.87427,1.638309 -3.752488,2.800685 -5.407738,3.385317 z M 12.847056,30.824282 C 10.491519,30.019182 8.546234,28.972801 7.212833,27.83098 6.014681,26.804896 5.409766,25.786207 5.409766,24.959613 c 0,-1.75904 2.622518,-4.00271 6.99643,-5.527689 0.530717,-0.185048 1.086271,-0.359422 1.662818,-0.523226 0.604497,1.966356 1.397467,4.022213 2.354416,6.101125 -0.969336,2.109785 -1.773572,4.198417 -2.383994,6.187806 -0.411017,-0.118148 -0.809229,-0.242478 -1.19238,-0.373347 z m 2.335838,-15.89989 c -0.907852,-4.639702 -0.304915,-8.1397205 1.212329,-9.0179941 1.616132,-0.9356206 5.189846,0.3983791 8.956434,3.7428515 0.240759,0.213763 0.482471,0.4374976 0.724873,0.6689806 -1.403574,1.507092 -2.790457,3.222885 -4.115266,5.092595 -2.271953,0.210581 -4.446745,0.548849 -6.446285,1.001838 -0.12571,-0.505699 -0.237076,-1.002534 -0.332085,-1.488271 z m 20.837795,5.145381 c -0.478001,-0.825648 -0.968737,-1.631771 -1.469012,-2.415891 1.541329,0.194844 3.018069,0.453491 4.404862,0.770013 -0.41635,1.334348 -0.935272,2.729489 -1.546133,4.15971 -0.438179,-0.831921 -0.901655,-1.670728 -1.389717,-2.513832 z m -8.497603,-8.276689 c 0.951879,1.031243 1.90513,2.182611 2.842735,3.43183 -0.944819,-0.04463 -1.901349,-0.06782 -2.865776,-0.06782 -0.955319,0 -1.904789,0.0227 -2.843772,0.06657 0.938552,-1.237604 1.900054,-2.387426 2.866813,-3.430534 z m -8.552026,8.290963 c -0.477485,0.827973 -0.932362,1.662227 -1.363676,2.498013 -0.600959,-1.425236 -1.11507,-2.826735 -1.535041,-4.180008 1.378291,-0.308431 2.848069,-0.56063 4.379587,-0.751784 -0.507322,0.791341 -1.002089,1.603404 -1.48087,2.433612 z m 1.524987,12.332108 c -1.582341,-0.176532 -3.074219,-0.415745 -4.452162,-0.715668 0.42667,-1.377427 0.952137,-2.80886 1.565825,-4.264795 0.432435,0.835194 0.889115,1.669782 1.369525,2.499565 h 8.3e-5 c 0.489351,0.845346 0.996338,1.673389 1.516729,2.480898 z m 7.084135,5.855471 c -0.978109,-1.055321 -1.953718,-2.222683 -2.906544,-3.478357 0.924968,0.03635 1.867983,0.0548 2.826407,0.0548 0.984633,0 1.958014,-0.02221 2.91609,-0.06482 -0.94071,1.278296 -1.890522,2.447461 -2.835953,3.488327 z m 9.849922,-10.910138 c 0.645676,1.471671 1.189971,2.895618 1.622141,4.249567 -1.400642,0.319531 -2.912894,0.576889 -4.506243,0.768133 0.501487,-0.794704 0.996505,-1.614676 1.482938,-2.458121 0.492107,-0.853333 0.959357,-1.70796 1.401164,-2.559579 z m -3.188752,1.5286 c -0.755148,1.309316 -1.530398,2.559231 -2.317442,3.739057 -1.433494,0.102495 -2.914447,0.155295 -4.423865,0.155295 -1.503318,0 -2.96561,-0.04672 -4.373738,-0.138096 -0.818775,-1.195305 -1.610882,-2.448917 -2.361204,-3.744997 h 1.67e-4 c -0.748351,-1.292556 -1.437107,-2.596044 -2.061205,-3.892207 0.623931,-1.299178 1.310876,-2.604121 2.054925,-3.894365 l -1.67e-4,2.64e-4 c 0.746019,-1.293684 1.53117,-2.541183 2.342376,-3.729009 1.436675,-0.108601 2.909893,-0.165266 4.398756,-0.165266 h 9e-5 c 1.495576,0 2.970687,0.0571 4.406931,0.166645 0.798819,1.179143 1.578636,2.422604 2.327587,3.716448 0.757452,1.308383 1.453268,2.604636 2.082525,3.875962 -0.62737,1.293162 -1.321626,2.602478 -2.075736,3.910255 v 0 z M 38.498495,5.8450054 c 1.617677,0.9328772 2.246754,4.6951626 1.23039,9.6286676 -0.06482,0.314802 -0.137838,0.635454 -0.217119,0.960402 -2.004192,-0.462446 -4.180522,-0.80657 -6.459104,-1.020333 -1.327378,-1.890257 -2.702912,-3.608703 -4.083619,-5.096459 0.37121,-0.3571094 0.741904,-0.6976054 1.111039,-1.0189532 3.566416,-3.1037 6.899706,-4.3291053 8.418413,-3.4533244 z"
     fill="#ffffff"
     id="path6"
     style="stroke-width:0.213792" />
  <path
     d="m 27.500007,20.686283 c 2.382358,0 4.31371,1.931269 4.31371,4.31371 0,2.382365 -1.931352,4.313724 -4.31371,4.313724 -2.382365,0 -4.313724,-1.931359 -4.313724,-4.313724 0,-2.382441 1.931359,-4.31371 4.313724,-4.31371"
     fill="#53c1de"
     id="path8"
     style="stroke-width:0.213792" />
</svg>
