<?xml version="1.0" encoding="UTF-8" standalone="no"?>
<svg
   xmlns:dc="http://purl.org/dc/elements/1.1/"
   xmlns:cc="http://creativecommons.org/ns#"
   xmlns:rdf="http://www.w3.org/1999/02/22-rdf-syntax-ns#"
   xmlns:svg="http://www.w3.org/2000/svg"
   xmlns="http://www.w3.org/2000/svg"
   xmlns:sodipodi="http://sodipodi.sourceforge.net/DTD/sodipodi-0.dtd"
   xmlns:inkscape="http://www.inkscape.org/namespaces/inkscape"
   fill="none"
   height="50"
   viewBox="0 0 50 50"
   width="50"
   version="1.1"
   id="svg6"
   sodipodi:docname="ts-logo-128.svg"
   inkscape:version="1.0.1 (3bc2e813f5, 2020-09-07)">
  <metadata
     id="metadata12">
    <rdf:RDF>
      <cc:Work
         rdf:about="">
        <dc:format>image/svg+xml</dc:format>
        <dc:type
           rdf:resource="http://purl.org/dc/dcmitype/StillImage" />
        <dc:title></dc:title>
      </cc:Work>
    </rdf:RDF>
  </metadata>
  <defs
     id="defs10" />
  <sodipodi:namedview
     pagecolor="#ffffff"
     bordercolor="#666666"
     borderopacity="1"
     objecttolerance="10"
     gridtolerance="10"
     guidetolerance="10"
     inkscape:pageopacity="0"
     inkscape:pageshadow="2"
     inkscape:window-width="1920"
     inkscape:window-height="1017"
     id="namedview8"
     showgrid="false"
     inkscape:zoom="4.695631"
     inkscape:cx="109.19124"
     inkscape:cy="77.518217"
     inkscape:window-x="-8"
     inkscape:window-y="-8"
     inkscape:window-maximized="1"
     inkscape:current-layer="svg6" />
  <rect
     fill="#3178c6"
     height="50"
     rx="2.34375"
     width="50"
     id="rect2"
     x="0"
     y="0"
     style="stroke-width:0.390625" />
  <path
     clip-rule="evenodd"
     d="m 29.008672,38.854688 v 5.478906 c 0.887656,0.45625 1.937422,0.798828 3.149414,1.026953 1.211992,0.228515 2.489375,0.342578 3.832227,0.342578 1.30871,0 2.551953,-0.125391 3.729609,-0.376562 1.178125,-0.251172 2.210547,-0.664844 3.098437,-1.241407 0.8875,-0.576562 1.590235,-1.329687 2.108204,-2.260156 0.517578,-0.930078 0.776562,-2.080078 0.776562,-3.449727 0,-0.993007 -0.148047,-1.86332 -0.44375,-2.610976 -0.296094,-0.747617 -0.722656,-1.412461 -1.280469,-1.994609 -0.557422,-0.58211 -1.226172,-1.104297 -2.005468,-1.566563 -0.779688,-0.462266 -1.658594,-0.898867 -2.6375,-1.309766 -0.716875,-0.296757 -1.359844,-0.584961 -1.928829,-0.864609 -0.569023,-0.279648 -1.052656,-0.565 -1.450937,-0.856055 -0.39832,-0.291093 -0.705586,-0.599257 -0.921797,-0.92457 -0.216211,-0.325273 -0.324336,-0.693398 -0.324336,-1.104297 0,-0.37668 0.09672,-0.71625 0.290195,-1.018711 0.193477,-0.302461 0.466602,-0.562148 0.819375,-0.779023 0.352774,-0.216836 0.785196,-0.385196 1.297305,-0.505039 0.512109,-0.119883 1.081094,-0.179805 1.706992,-0.179805 0.455391,0 0.93586,0.03426 1.4425,0.102734 0.50625,0.06848 1.015625,0.174063 1.527735,0.316758 0.512109,0.142656 1.009765,0.322422 1.49375,0.539297 0.483593,0.216875 0.930078,0.467969 1.339843,0.75332 V 21.25418 C 43.796875,20.93457 42.889453,20.697734 41.905078,20.543633 40.920703,20.389531 39.791406,20.3125 38.516641,20.3125 c -1.297305,0 -2.526328,0.139805 -3.68711,0.419453 -1.160742,0.279649 -2.182109,0.71625 -3.064062,1.309766 -0.881953,0.593554 -1.578985,1.349726 -2.091055,2.268554 -0.512109,0.918829 -0.768164,2.017422 -0.768164,3.295821 0,1.632226 0.469414,3.024726 1.408281,4.177539 0.938867,1.152851 2.36418,2.12875 4.276016,2.927734 0.751094,0.308164 1.450976,0.610664 2.099609,0.907422 0.648672,0.296758 1.209141,0.604922 1.681407,0.924531 0.472265,0.31961 0.844843,0.667735 1.11789,1.044375 0.273438,0.37668 0.409766,0.804688 0.409766,1.284102 0,0.353984 -0.08516,0.682109 -0.25586,0.984453 -0.170703,0.302344 -0.429687,0.564844 -0.776757,0.7875 -0.34711,0.222656 -0.779532,0.396875 -1.297344,0.522266 -0.517774,0.12539 -1.12375,0.188281 -1.81793,0.188281 -1.183555,0 -2.355664,-0.208203 -3.516445,-0.625 -1.160742,-0.416406 -2.236133,-1.041406 -3.226211,-1.874609 z M 19.805703,25.216563 h 7.147422 V 20.703125 H 7.03125 v 4.513438 h 7.112461 V 45.3125 h 5.661992 z"
     fill="#ffffff"
     fill-rule="evenodd"
     id="path4"
     style="stroke-width:0.390625" />
</svg>
