<?xml version="1.0" encoding="UTF-8" standalone="no"?>
<svg
   width="42"
   height="42"
   viewBox="0 0 8.2656 8.2665633"
   version="1.1"
   id="svg4"
   sodipodi:docname="azure.svg"
   inkscape:version="1.2.1 (9c6d41e, 2022-07-14)"
   xmlns:inkscape="http://www.inkscape.org/namespaces/inkscape"
   xmlns:sodipodi="http://sodipodi.sourceforge.net/DTD/sodipodi-0.dtd"
   xmlns="http://www.w3.org/2000/svg"
   xmlns:svg="http://www.w3.org/2000/svg"
   xmlns:rdf="http://www.w3.org/1999/02/22-rdf-syntax-ns#"
   xmlns:cc="http://creativecommons.org/ns#"
   xmlns:dc="http://purl.org/dc/elements/1.1/">
  <metadata
     id="metadata10">
    <rdf:RDF>
      <cc:Work
         rdf:about="">
        <dc:format>image/svg+xml</dc:format>
        <dc:type
           rdf:resource="http://purl.org/dc/dcmitype/StillImage" />
      </cc:Work>
    </rdf:RDF>
  </metadata>
  <defs
     id="defs8" />
  <sodipodi:namedview
     pagecolor="#ffffff"
     bordercolor="#666666"
     borderopacity="1"
     objecttolerance="10"
     gridtolerance="10"
     guidetolerance="10"
     inkscape:pageopacity="0"
     inkscape:pageshadow="2"
     inkscape:window-width="1473"
     inkscape:window-height="916"
     id="namedview6"
     showgrid="false"
     inkscape:zoom="10.42"
     inkscape:cx="34.357006"
     inkscape:cy="25.047985"
     inkscape:window-x="39"
     inkscape:window-y="38"
     inkscape:window-maximized="1"
     inkscape:current-layer="svg4"
     inkscape:showpageshadow="2"
     inkscape:pagecheckerboard="0"
     inkscape:deskcolor="#d1d1d1" />
  <path
     d="m 3.8383956,6.856322 1.8568277,-0.328005 0.0172,-0.004 L 4.7576094,5.3883 A 161.5804,161.5804 0 0 1 3.8027951,4.247083 c 0,-0.0056 0.9860147,-2.7208406 0.9916148,-2.7304407 0.0016,-0.0032 0.6728099,1.1552172 1.6264242,2.8080418 l 1.6360246,2.8360424 0.0124,0.021601 -3.0348459,-4.002e-4 -3.0348452,-4e-4 1.8388273,-0.3248048 z M 0.1963413,6.5107167 c 0,-0.0016 0.45000671,-0.7828117 1.0000149,-1.7360258 L 2.1963711,3.041465 3.3615885,2.0634504 C 4.0023981,1.5258424 4.5284058,1.0850359 4.5308059,1.0842358 a 0.20480306,0.20480306 0 0 1 -0.0188,0.047201 L 3.2463871,3.845477 2.0035686,6.5107167 l -0.9036135,0.0012 c -0.49680773,8.001e-4 -0.9036138,0 -0.9036138,-0.0016 z"
     fill="#0089d6"
     id="path2"
     style="stroke-width:0.400006" />
</svg>
