<?xml version="1.0" encoding="UTF-8" standalone="no"?>
<svg
   width="42"
   height="42"
   viewBox="0 0 42 42"
   version="1.1"
   preserveAspectRatio="xMidYMid"
   id="svg12"
   sodipodi:docname="git.svg"
   inkscape:version="1.2.1 (9c6d41e, 2022-07-14)"
   xmlns:inkscape="http://www.inkscape.org/namespaces/inkscape"
   xmlns:sodipodi="http://sodipodi.sourceforge.net/DTD/sodipodi-0.dtd"
   xmlns="http://www.w3.org/2000/svg"
   xmlns:svg="http://www.w3.org/2000/svg"
   xmlns:rdf="http://www.w3.org/1999/02/22-rdf-syntax-ns#"
   xmlns:cc="http://creativecommons.org/ns#"
   xmlns:dc="http://purl.org/dc/elements/1.1/">
  <metadata
     id="metadata18">
    <rdf:RDF>
      <cc:Work
         rdf:about="">
        <dc:format>image/svg+xml</dc:format>
        <dc:type
           rdf:resource="http://purl.org/dc/dcmitype/StillImage" />
      </cc:Work>
    </rdf:RDF>
  </metadata>
  <defs
     id="defs16" />
  <sodipodi:namedview
     pagecolor="#ffffff"
     bordercolor="#666666"
     borderopacity="1"
     objecttolerance="10"
     gridtolerance="10"
     guidetolerance="10"
     inkscape:pageopacity="0"
     inkscape:pageshadow="2"
     inkscape:window-width="1390"
     inkscape:window-height="916"
     id="namedview14"
     showgrid="false"
     inkscape:zoom="4.0703125"
     inkscape:cx="74.318618"
     inkscape:cy="54.049904"
     inkscape:window-x="39"
     inkscape:window-y="38"
     inkscape:window-maximized="0"
     inkscape:current-layer="g10"
     inkscape:document-rotation="0"
     inkscape:showpageshadow="2"
     inkscape:pagecheckerboard="0"
     inkscape:deskcolor="#d1d1d1" />
  <g
     id="g10"
     transform="matrix(0.46895557,0,0,0.46895557,0.14547432,0.06693319)">
    <path
       d="M 85.509343,40.837957 48.267838,3.5992673 c -2.143167,-2.1450384 -5.621835,-2.1450384 -7.767809,0 l -7.733182,7.7331817 9.809901,9.809901 c 2.279805,-0.77023 4.89372,-0.253624 6.711199,1.563856 1.825904,1.82871 2.338767,4.465086 1.549819,6.752378 l 9.454267,9.454267 c 2.287291,-0.788012 4.926475,-0.277957 6.753313,1.55169 2.553084,2.552146 2.553084,6.688738 0,9.242757 -2.554017,2.554018 -6.69061,2.554018 -9.245564,0 -1.920427,-1.922299 -2.394919,-4.743044 -1.422538,-7.10895 l -8.816931,-8.816931 -9.6e-4,23.202352 c 0.62236,0.308841 1.210093,0.719693 1.72857,1.236299 2.553084,2.552146 2.553084,6.688738 0,9.244628 -2.554017,2.553083 -6.692481,2.553083 -9.242756,0 -2.553082,-2.55589 -2.553082,-6.692482 0,-9.244628 0.630784,-0.629848 1.36077,-1.106212 2.139423,-1.426283 V 33.375245 C 41.405937,33.057046 40.676886,32.58349 40.045167,31.948963 38.110701,30.017305 37.645569,27.178779 38.636666,24.803515 L 28.967172,15.132124 3.4316699,40.665755 c -2.1459743,2.14691 -2.1459743,5.625578 0,7.770617 L 40.673167,85.675999 c 2.144102,2.145039 5.621835,2.145039 7.768745,0 L 85.509343,48.60951 c 2.14503,-2.145975 2.14503,-5.626514 0,-7.771553"
       fill="#de4c36"
       id="path8"
       style="stroke-width:0.800617" />
  </g>
</svg>
