<?xml version="1.0" encoding="UTF-8" standalone="no"?>
<svg
   width="42"
   height="42"
   viewBox="0 0 42 42"
   version="1.1"
   preserveAspectRatio="xMidYMid"
   id="svg10"
   sodipodi:docname="react.svg"
   inkscape:version="1.2.1 (9c6d41e, 2022-07-14)"
   xmlns:inkscape="http://www.inkscape.org/namespaces/inkscape"
   xmlns:sodipodi="http://sodipodi.sourceforge.net/DTD/sodipodi-0.dtd"
   xmlns="http://www.w3.org/2000/svg"
   xmlns:svg="http://www.w3.org/2000/svg"
   xmlns:rdf="http://www.w3.org/1999/02/22-rdf-syntax-ns#"
   xmlns:cc="http://creativecommons.org/ns#"
   xmlns:dc="http://purl.org/dc/elements/1.1/">
  <metadata
     id="metadata16">
    <rdf:RDF>
      <cc:Work
         rdf:about="">
        <dc:format>image/svg+xml</dc:format>
        <dc:type
           rdf:resource="http://purl.org/dc/dcmitype/StillImage" />
      </cc:Work>
    </rdf:RDF>
  </metadata>
  <defs
     id="defs14" />
  <sodipodi:namedview
     pagecolor="#ffffff"
     bordercolor="#666666"
     borderopacity="1"
     objecttolerance="10"
     gridtolerance="10"
     guidetolerance="10"
     inkscape:pageopacity="0"
     inkscape:pageshadow="2"
     inkscape:window-width="1390"
     inkscape:window-height="916"
     id="namedview12"
     showgrid="false"
     lock-margins="true"
     units="px"
     inkscape:zoom="7.3913043"
     inkscape:cx="22.797059"
     inkscape:cy="34.635294"
     inkscape:window-x="39"
     inkscape:window-y="38"
     inkscape:window-maximized="0"
     inkscape:current-layer="svg10"
     inkscape:document-rotation="0"
     inkscape:showpageshadow="2"
     inkscape:pagecheckerboard="0"
     inkscape:deskcolor="#d1d1d1" />
  <path
     d="m 0.161255,20.932702 c 0,3.147446 3.073428,6.085717 7.918956,7.741892 -0.967607,4.871259 -0.173415,8.797457 2.479278,10.327331 2.726694,1.572406 6.788802,0.483978 10.64428,-2.886163 3.758208,3.234087 7.556559,4.506873 10.20678,2.972639 2.724028,-1.576967 3.55262,-5.769457 2.558258,-10.792764 5.046861,-1.668611 7.869938,-4.174062 7.869938,-7.362935 0,-3.074489 -3.07913,-5.734326 -7.859305,-7.379912 C 35.049916,8.3218767 34.142873,4.4909508 31.380375,2.8978991 28.717045,1.3620924 24.874601,2.700701 21.061121,6.0194916 17.093831,2.4968554 13.28931,1.4213484 10.529485,3.019052 7.868741,4.5592284 7.109473,8.5567767 8.080211,13.518214 3.398302,15.150607 0.161255,17.870515 0.161255,20.932702 Z"
     fill="#ffffff"
     id="path2"
     style="stroke-width:0.163807" />
  <path
     d="m 32.925729,15.207989 c -0.383961,-0.132159 -0.781836,-0.257207 -1.191496,-0.375468 0.06736,-0.274796 0.129129,-0.546038 0.184074,-0.812672 C 32.820256,9.6417107 32.230529,6.114646 30.216805,4.953389 28.285904,3.8398966 25.128054,5.000871 21.93877,7.7764232 21.632082,8.043318 21.324545,8.3258872 21.017131,8.6220342 20.812298,8.4261004 20.607802,8.2367502 20.403828,8.0556318 17.061371,5.0878581 13.711072,3.837197 11.699329,5.001815 9.770267,6.1185352 9.198993,9.4343065 10.01087,13.583509 c 0.0784,0.400767 0.170049,0.810032 0.273682,1.226152 -0.474161,0.134597 -0.931921,0.278087 -1.369915,0.430744 -3.918671,1.366222 -6.421311,3.507431 -6.421311,5.728419 0,2.293855 2.686586,4.594633 6.768188,5.989713 0.322107,0.110094 0.65633,0.214185 1.000769,0.313006 -0.111806,0.450057 -0.209048,0.891075 -0.290678,1.321227 -0.774127,4.077185 -0.169585,7.314627 1.754335,8.424299 1.98724,1.145973 5.322387,-0.03195 8.569971,-2.870734 0.256673,-0.224396 0.51428,-0.46237 0.772345,-0.711803 0.334495,0.322107 0.668451,0.626945 1.000631,0.912874 3.145669,2.706951 6.252526,3.800015 8.174668,2.687253 1.985266,-1.149269 2.630456,-4.627054 1.792822,-8.858335 -0.06398,-0.323158 -0.138429,-0.653299 -0.222033,-0.989309 0.234218,-0.06924 0.464146,-0.140722 0.68835,-0.215038 4.24321,-1.405879 7.00398,-3.678654 7.00398,-6.003153 0,-2.229028 -2.583348,-4.384663 -6.580945,-5.760835 z"
     fill="#53c1de"
     id="path4"
     style="stroke-width:0.163807" />
  <path
     d="m 32.005436,25.471318 c -0.202389,0.06699 -0.410055,0.131764 -0.621673,0.194551 -0.468431,-1.482962 -1.10064,-3.059881 -1.874309,-4.689105 0.738287,-1.590426 1.346057,-3.147179 1.80138,-4.620523 0.378625,0.10956 0.746127,0.225115 1.10025,0.347069 3.425139,1.179109 5.514427,2.922453 5.514427,4.265746 0,1.430851 -2.256376,3.288295 -5.920075,4.502262 z m -1.520186,3.012315 c 0.370388,1.871017 0.423296,3.562639 0.177954,4.88505 -0.220447,1.188268 -0.663776,1.980508 -1.211929,2.297807 -1.166463,0.675173 -3.66093,-0.202458 -6.351143,-2.517465 -0.308396,-0.26538 -0.619044,-0.548744 -0.930673,-0.848641 1.042937,-1.140637 2.085277,-2.466672 3.102579,-3.93936 1.789327,-0.158781 3.479823,-0.418362 5.01286,-0.772745 0.0755,0.304576 0.142574,0.603288 0.200352,0.895354 z m -15.373205,7.066181 c -1.139651,0.402479 -2.047324,0.414008 -2.595997,0.09764 -1.167522,-0.673391 -1.65288,-3.272755 -0.99082,-6.759556 0.07583,-0.399315 0.166095,-0.809509 0.270116,-1.228793 1.516245,0.33528 3.194358,0.576544 4.987963,0.72195 1.024153,1.441068 2.096603,2.765651 3.177349,3.925462 -0.236122,0.227956 -0.471333,0.444973 -0.705209,0.649475 -1.436063,1.25527 -2.875151,2.145881 -4.143402,2.593826 z M 9.772932,25.462558 C 7.968122,24.845692 6.477647,24.043956 5.455997,23.169093 4.537974,22.382909 4.074489,21.602391 4.074489,20.969056 c 0,-1.347775 2.00937,-3.066872 5.360657,-4.235309 0.406634,-0.141784 0.832299,-0.275389 1.274049,-0.400895 0.463164,1.506619 1.070737,3.081814 1.80395,4.674675 -0.742704,1.616514 -1.358909,3.216822 -1.826613,4.741089 -0.314921,-0.09052 -0.62003,-0.185786 -0.9136,-0.286058 z m 1.789716,-12.182477 c -0.695595,-3.554934 -0.233626,-6.2366438 0.928885,-6.9095761 1.238279,-0.7168714 3.976454,0.3052376 6.862409,2.8677684 0.18447,0.1637849 0.369669,0.3352103 0.555397,0.5125717 -1.075416,1.154732 -2.138045,2.469371 -3.153112,3.90194 -1.740768,0.161348 -3.407091,0.420528 -4.939136,0.767607 -0.09632,-0.387466 -0.181648,-0.76814 -0.254443,-1.140311 z m 15.965894,3.942385 c -0.366244,-0.63261 -0.742245,-1.250261 -1.125555,-1.851053 1.180964,0.149289 2.312441,0.347465 3.374999,0.589983 -0.319006,1.022376 -0.716604,2.091331 -1.184644,3.187165 -0.335732,-0.637417 -0.690848,-1.28011 -1.0648,-1.926095 z m -6.510854,-6.341589 c 0.729329,0.790136 1.459708,1.672314 2.178101,2.629463 -0.723919,-0.03419 -1.456812,-0.05197 -2.195754,-0.05197 -0.731965,0 -1.459448,0.01739 -2.178896,0.051 0.719118,-0.948251 1.45582,-1.829243 2.196549,-2.628471 z m -6.552552,6.352525 c -0.365848,0.634393 -0.714374,1.273597 -1.044847,1.913975 -0.460454,-1.092014 -0.854365,-2.165841 -1.176147,-3.202717 1.056046,-0.23632 2.182187,-0.429554 3.355635,-0.576016 -0.38871,0.606324 -0.7678,1.228526 -1.134641,1.864631 z m 1.168444,9.448847 c -1.212389,-0.135258 -2.355464,-0.318543 -3.411242,-0.548343 0.326915,-1.055383 0.729527,-2.152146 1.199734,-3.267682 0.33133,0.639925 0.681238,1.279386 1.049328,1.915164 h 6.3e-5 c 0.37494,0.647703 0.763393,1.282149 1.162117,1.900861 z m 5.427855,4.486455 c -0.749426,-0.808585 -1.496936,-1.703016 -2.22699,-2.665113 0.70871,0.02785 1.431246,0.04198 2.16559,0.04198 0.754424,0 1.500227,-0.01701 2.234304,-0.04967 -0.72077,0.979428 -1.448516,1.875241 -2.172904,2.672751 z m 7.546999,-8.359335 c 0.494716,1.127593 0.911755,2.21862 1.242882,3.256014 -1.07317,0.244824 -2.231855,0.442012 -3.452678,0.588542 0.384239,-0.608901 0.763521,-1.237162 1.136226,-1.883409 0.377052,-0.653823 0.735058,-1.308637 1.07357,-1.961147 z m -2.443218,1.171212 c -0.578594,1.003196 -1.172589,1.96088 -1.775621,2.864861 -1.098342,0.07853 -2.233046,0.118987 -3.38956,0.118987 -1.151841,0 -2.272247,-0.0358 -3.351153,-0.10581 -0.627344,-0.91584 -1.234257,-1.876357 -1.809152,-2.869411 h 1.28e-4 c -0.573386,-0.990356 -1.10111,-1.989086 -1.579294,-2.982205 0.478056,-0.995429 1.004392,-1.995274 1.574482,-2.983858 l -1.28e-4,2.03e-4 c 0.571599,-0.99122 1.173181,-1.947052 1.794726,-2.857163 1.100778,-0.08321 2.229557,-0.126626 3.370321,-0.126626 h 7e-5 c 1.145908,0 2.276137,0.04375 3.376584,0.127683 0.612055,0.903458 1.20955,1.856196 1.783395,2.847538 0.580359,1.002481 1.113493,1.995669 1.595628,2.969757 -0.48069,0.99082 -1.012628,1.994016 -1.590426,2.996033 v 0 z M 29.427034,6.323466 c 1.239462,0.7147695 1.72146,3.597428 0.942723,7.377473 -0.04967,0.241201 -0.105611,0.486884 -0.166356,0.735859 -1.53561,-0.354325 -3.203111,-0.617992 -4.948958,-0.781777 -1.017035,-1.448313 -2.070968,-2.764985 -3.128864,-3.904902 0.28442,-0.2736155 0.568446,-0.5345033 0.851277,-0.7807197 2.732584,-2.3780514 5.286546,-3.3169555 6.450178,-2.6459333 z"
     fill="#ffffff"
     id="path6"
     style="stroke-width:0.163807" />
  <path
     d="m 21.000006,17.694835 c 1.825359,0 3.305159,1.479737 3.305159,3.30516 0,1.825365 -1.4798,3.30517 -3.305159,3.30517 -1.825366,0 -3.305171,-1.479805 -3.305171,-3.30517 0,-1.825423 1.479805,-3.30516 3.305171,-3.30516"
     fill="#53c1de"
     id="path8"
     style="stroke-width:0.163807" />
</svg>
